<mxfile host="app.diagrams.net" modified="2023-10-09T13:17:56.045Z" agent="Mozilla/5.0 (Macintosh; Intel Mac OS X 10_15_7) AppleWebKit/605.1.15 (KHTML, like Gecko) Version/16.5.2 Safari/605.1.15" version="22.0.4" etag="dg4kAdgQmt0cMbU28a0j" type="github">
  <diagram name="PÃ¡gina-1" id="gvMrzJgmjp8wq2xpRmNI">
    <mxGraphModel>
      <root>
        <mxCell id="0" />
        <mxCell id="1" parent="0" />
      </root>
    </mxGraphModel>
  </diagram>
</mxfile>
